<svg width="580" height="300" viewBox="0 0 580 100" fill="none" xmlns="http://www.w3.org/2000/svg">
<g clip-path="url(#clip0_1_246)">
<rect width="580" height="100" fill="white" fill-opacity="0.01" style="mix-blend-mode:multiply"/>
<path d="M485 80H465V100H485V80Z" fill="#191919"/>
<path d="M484.375 0H465.625V64.5H484.375V0Z" fill="#191919"/>
<path d="M557.625 82.2502C537.375 82.2502 524.375 67.7501 524.375 49.8751V35.2499H571.25V17.5H524.375V0H505.625V49.8751C505.625 77.5001 527.625 100 557.625 100H580V82.2502H557.625Z" fill="#191919"/>
<path d="M350 49.8751V0H331.25V49.875C331.25 77.5001 353.25 100 383.25 100H415V82.2502H383.25C363 82.2502 350 67.7502 350 49.8751Z" fill="#191919"/>
<path d="M82.9999 0H51.9997C21.9999 0 0 22.6249 0 50C0 77.6252 21.9999 100 51.9997 100H82.9999C113 100 135 77.6252 135 50C135 22.6249 113 0 82.9999 0ZM82.9999 82.2502H51.9997C31.7497 82.2502 18.7497 67.875 18.7497 49.9999C18.7497 32.3751 31.7497 17.7499 51.9997 17.7499H82.9999C103.25 17.7499 116.25 32.3751 116.25 49.9999C116.25 67.875 103.25 82.2502 82.9999 82.2502Z" fill="#191919"/>
<path d="M291.25 59.875C291.25 74 284.5 82.2502 269.25 82.2502H263.25C248 82.2502 241.25 74 241.25 59.875V0H222.5V59.875C222.5 74 215.75 82.2502 200.5 82.2502H194.5C179.25 82.2502 172.5 74 172.5 59.875V0H153.75V59.875C153.75 85.0002 168.25 100 194.5 100H200.5C215.125 100 225.25 95.0001 231.875 86.375C238.5 95 248.625 100 263.25 100H269.25C295.5 100 310 85.0002 310 59.875V0H291.25V59.875Z" fill="#191919"/>
</g>
<defs>
<clipPath id="clip0_1_246">
<rect width="580" height="100" fill="white"/>
</clipPath>
</defs>
</svg>
